<svg width="227" height="214" viewBox="0 0 227 214" fill="none" xmlns="http://www.w3.org/2000/svg">
<path d="M222.295 144.034C222.332 169.227 214.409 193.715 199.776 213.633H28.7286C14.0959 193.715 6.17291 169.227 6.21025 144.034C6.21025 81.135 54.5842 30.1486 114.255 30.1486C173.925 30.1486 222.295 81.1367 222.295 144.034Z" fill="white"/>
<path opacity="0.1" d="M222.295 144.034C222.332 169.227 214.409 193.715 199.776 213.633H28.7286C14.0959 193.715 6.17291 169.227 6.21025 144.034C6.21025 81.135 54.5842 30.1486 114.255 30.1486C173.925 30.1486 222.295 81.1367 222.295 144.034Z" fill="#0E82FD"/>
<path d="M167.631 214H122.186L119.459 175.768L166.003 177.495C166.003 177.495 166.566 173.038 166.594 181.488C166.613 187.349 167.774 198.97 167.631 214Z" fill="#262626"/>
<path d="M138.711 173.571C138.669 174.481 138.622 175.396 138.566 176.307C137.842 188.989 136.178 201.592 133.59 214H88.1691C88.7604 194.587 89.2534 179.211 89.2534 179.211L119.459 175.767L121.271 175.558L138.711 173.571Z" fill="#262626"/>
<path d="M149.666 44.0145C149.666 44.0145 150.181 56.5194 152.744 61.1149C160.127 74.3441 162.026 89.0692 154.174 96.545C146.323 104.021 97.3187 102.925 93.9958 85.2052C91.1983 70.2867 97.9404 68.8551 99.8426 56.6518C100.703 51.1302 102.991 39.5632 102.991 39.5632" fill="#0A0A0A"/>
<path d="M107.736 83.2577C107.82 83.246 108.759 99.6679 126.857 98.2363C139.387 97.2467 143.854 83.2343 144.141 83.2343C142.79 82.9318 140.515 82.4915 139.915 82.154C137.943 81.0366 135.501 79.874 134.865 75.8354C134.499 73.5073 135.121 61.599 134.929 59.2438L115.697 63.7687C115.966 68.7431 117.847 80.2738 111.254 82.3161C110.158 82.6524 108.976 82.9619 107.736 83.2577Z" fill="#FFCEA9"/>
<path opacity="0.52" d="M115.427 77.6025C115.729 76.5791 115.923 75.524 116.006 74.4561C116.218 72.0192 116.175 69.5651 115.88 67.1378C119.789 66.5818 123.472 64.881 126.51 62.2286C126.866 63.6189 128.831 69.6935 128.287 71.0148C127.259 73.5125 122.429 77.6025 115.427 77.6025Z" fill="#0C0C0C"/>
<path d="M117.15 72.4125C124.714 73.3733 134.593 70.4161 136.859 59.8245L138.905 50.268C141.171 39.6768 137.732 29.8358 128.271 27.5851C118.811 25.3352 109.902 32.2399 107.635 42.8324L106.73 47.0632C105.86 51.1265 103.656 70.701 117.15 72.4125Z" fill="#FFCEA9"/>
<path d="M115.341 60.7122C116.793 60.7409 118.219 61.129 119.502 61.8451C119.554 61.8747 119.593 61.9244 119.611 61.9838C119.629 62.0431 119.624 62.1074 119.597 62.1629C119.57 62.2184 119.524 62.2608 119.469 62.2811C119.413 62.3014 119.352 62.298 119.298 62.2716C116.529 60.7995 113.933 60.8121 111.79 62.308C111.746 62.3396 111.702 62.3689 111.655 62.3957C111.602 62.4193 111.542 62.4205 111.488 62.399C111.434 62.3775 111.389 62.3349 111.364 62.28C111.339 62.2251 111.334 62.162 111.351 62.1037C111.369 62.0454 111.407 61.9964 111.457 61.9667C111.474 61.9566 111.503 61.9366 111.541 61.9094C112.667 61.1208 113.99 60.7039 115.341 60.7122Z" fill="#0C0C0C"/>
<path d="M114.972 57.4696H114.953C114.564 57.4072 114.179 57.3223 113.799 57.2152C113.231 57.0511 112.485 56.7703 112.559 56.2331C112.643 55.6207 115.141 49.257 115.425 48.5335C115.437 48.5013 115.455 48.4719 115.477 48.447C115.5 48.4221 115.527 48.4023 115.557 48.3887C115.587 48.3751 115.62 48.368 115.652 48.3678C115.685 48.3676 115.717 48.3743 115.748 48.3875C115.778 48.4008 115.805 48.4203 115.828 48.4448C115.851 48.4694 115.869 48.4986 115.881 48.5307C115.893 48.5627 115.899 48.597 115.899 48.6315C115.898 48.666 115.891 48.7 115.877 48.7315C114.812 51.4413 113.1 55.8948 113.043 56.3071C113.114 56.4934 114.058 56.8113 115.025 56.9587C115.087 56.9686 115.143 57.0035 115.182 57.0561C115.221 57.1087 115.238 57.1749 115.232 57.241C115.225 57.3071 115.195 57.368 115.147 57.4109C115.099 57.4539 115.037 57.4757 114.974 57.4717L114.972 57.4696Z" fill="#0C0C0C"/>
<path d="M146.412 53.9006L137.932 51.9373C131.558 48.9417 129.993 37.0718 129.993 37.0718C129.993 37.0718 121.873 44.8517 102.993 39.5632C102.993 39.5632 107.734 11.7266 135.581 20.8947C144.56 23.851 150.748 33.7191 149.512 46.5615C148.644 55.5586 146.412 53.9006 146.412 53.9006Z" fill="#0A0A0A"/>
<path d="M135.581 62.9108C138.456 63.5946 141.48 60.9057 142.129 57.8763C142.778 54.8469 140.805 52.6199 137.928 51.9365L136.012 53.6146L133.109 62.326L135.581 62.9108Z" fill="#FFCEA9"/>
<path d="M113.879 42.8762C113.053 42.2706 112.089 41.9099 111.086 41.8319C110.592 41.7905 110.096 41.8275 109.613 41.9418C109.134 42.0527 108.671 42.2267 108.234 42.4598C108.174 42.4898 108.127 42.5434 108.104 42.6092C108.081 42.6749 108.083 42.7476 108.11 42.8118C108.136 42.876 108.186 42.9267 108.248 42.953C108.309 42.9793 108.378 42.9792 108.44 42.9527L108.458 42.9447C108.862 42.754 109.286 42.6173 109.722 42.5379C110.152 42.4571 110.592 42.4454 111.026 42.5032C111.887 42.6111 112.705 42.957 113.398 43.5058L113.421 43.5246C113.501 43.5905 113.603 43.6202 113.704 43.6069C113.805 43.5937 113.897 43.5387 113.96 43.454C114.022 43.3693 114.05 43.2618 114.038 43.1553C114.025 43.0487 113.973 42.9518 113.893 42.8858L113.879 42.8762Z" fill="#0C0C0C"/>
<path d="M121.288 44.6866C122.137 44.5002 123.018 44.5538 123.84 44.842C124.256 44.9843 124.649 45.1921 125.007 45.4582C125.369 45.7252 125.698 46.0391 125.986 46.3926L125.999 46.4077C126.044 46.459 126.106 46.4898 126.173 46.4936C126.239 46.4974 126.304 46.4738 126.354 46.4279C126.404 46.382 126.435 46.3173 126.441 46.2476C126.447 46.1778 126.426 46.1085 126.385 46.0543C126.083 45.6477 125.734 45.2828 125.345 44.9682C124.955 44.6481 124.52 44.3919 124.057 44.2083C123.118 43.829 122.099 43.7228 121.108 43.9008C121.057 43.9089 121.008 43.9276 120.965 43.9558C120.921 43.984 120.883 44.0212 120.853 44.0652C120.823 44.1091 120.802 44.159 120.79 44.2117C120.779 44.2645 120.778 44.3191 120.787 44.3724C120.796 44.4257 120.815 44.4765 120.843 44.5218C120.871 44.5672 120.907 44.6062 120.95 44.6365C120.992 44.6668 121.04 44.6878 121.091 44.6983C121.141 44.7087 121.193 44.7085 121.243 44.6975L121.259 44.6941L121.288 44.6866Z" fill="#0C0C0C"/>
<path d="M137.915 51.8225L138.008 51.5765C127.327 47.0862 130.342 35.995 130.374 35.883L130.133 35.807C130.102 35.9206 127.018 47.2412 137.915 51.8225Z" fill="#0C0C0C"/>
<path d="M109.282 47.3799C109.941 47.3799 110.476 46.8162 110.476 46.1208C110.476 45.4255 109.941 44.8618 109.282 44.8618C108.622 44.8618 108.087 45.4255 108.087 46.1208C108.087 46.8162 108.622 47.3799 109.282 47.3799Z" fill="#0C0C0C"/>
<path d="M121.089 49.5218C121.748 49.5218 122.283 48.9581 122.283 48.2628C122.283 47.5674 121.748 47.0037 121.089 47.0037C120.429 47.0037 119.894 47.5674 119.894 48.2628C119.894 48.9581 120.429 49.5218 121.089 49.5218Z" fill="#0C0C0C"/>
<path opacity="0.1" d="M124.765 57.1839C124.895 56.2219 123.993 55.2901 122.749 55.1026C121.505 54.9151 120.39 55.5428 120.26 56.5048C120.129 57.4668 121.032 58.3986 122.276 58.5861C123.52 58.7737 124.634 58.1458 124.765 57.1839Z" fill="#0C0C0C"/>
<path opacity="0.1" d="M109.18 54.4064C109.047 55.3672 107.933 55.9938 106.689 55.8084C106.474 55.7757 106.263 55.7197 106.059 55.6413C106.026 54.4912 106.047 53.3855 106.102 52.3646C106.45 52.2819 106.81 52.2684 107.163 52.3249C108.407 52.5091 109.31 53.4423 109.18 54.4064Z" fill="#0C0C0C"/>
<path d="M20.4205 82.2935C20.587 81.9459 20.8518 81.6613 21.1784 81.4792C21.5049 81.297 21.8771 81.2263 22.2434 81.2768C22.2402 81.2535 22.2424 81.2298 22.2499 81.2076C22.2573 81.1855 22.2698 81.1656 22.2862 81.1497C22.3026 81.1337 22.3224 81.1223 22.344 81.1162C22.3655 81.1102 22.3881 81.1098 22.4099 81.1151L21.1738 80.181C20.8041 79.9143 20.5384 79.5154 20.4259 79.0582C20.3135 78.6011 20.3618 78.1164 20.562 77.6939C20.7725 77.2833 21.1202 76.9699 21.5375 76.8142C21.9549 76.6585 22.4122 76.6717 22.8208 76.8513C22.8176 76.8329 22.8295 76.8154 22.8323 76.7966L22.3243 76.4127C21.9768 76.1597 21.723 75.788 21.6056 75.3604C21.4883 74.9328 21.5147 74.4757 21.6803 74.0662C21.7892 73.8118 21.9503 73.586 22.1521 73.4051C22.3538 73.2243 22.5911 73.0929 22.8468 73.0204C23.1026 72.9479 23.3704 72.9361 23.631 72.986C23.8915 73.0358 24.1384 73.1459 24.3537 73.3085L25.5255 74.1941C25.5291 74.1866 25.5255 74.1782 25.5302 74.1711C25.535 74.164 25.5477 74.1619 25.5544 74.1544C25.285 73.8355 25.1265 73.4295 25.1049 73.0031C25.0833 72.5768 25.1999 72.1553 25.4355 71.808C25.9903 70.8698 27.2656 71.0615 28.0237 71.6338L34.9215 76.6566L33.6887 74.4685C33.441 74.0475 33.354 73.5432 33.4453 73.0572C33.5365 72.5713 33.7993 72.1399 34.1805 71.8502C34.3823 71.7078 34.6096 71.6103 34.8483 71.5635C35.0871 71.5168 35.3324 71.5218 35.5693 71.5783C35.8062 71.6348 36.0297 71.7415 36.2261 71.8921C36.4226 72.0426 36.5879 72.2337 36.712 72.4538L43.4445 84.401C44.2343 85.8026 44.4745 87.4735 44.1142 89.0589C43.7538 90.6442 42.8212 92.0189 41.5146 92.891C39.9993 93.9024 38.232 94.4137 36.4392 94.3595C34.6464 94.3052 32.9098 93.6878 31.452 92.5865L21.0347 84.7164C20.6882 84.4447 20.4389 84.0575 20.3274 83.6177C20.2159 83.1779 20.2487 82.7112 20.4205 82.2935Z" fill="#FFCEA9"/>
<g opacity="0.25">
<path d="M32.3531 79.1604C32.3278 79.1973 32.2899 79.2223 32.2474 79.2301C32.2049 79.2379 32.1612 79.2279 32.1256 79.2022L25.5714 74.4141C25.5528 74.4014 25.5368 74.3849 25.5244 74.3656C25.5119 74.3463 25.5033 74.3245 25.499 74.3016C25.4948 74.2787 25.4949 74.2552 25.4994 74.2323C25.5039 74.2095 25.5127 74.1878 25.5254 74.1686C25.538 74.1494 25.5541 74.1331 25.5728 74.1207C25.5916 74.1082 25.6125 74.0998 25.6343 74.096C25.6562 74.0922 25.6785 74.0931 25.7 74.0986C25.7216 74.1041 25.7418 74.1141 25.7596 74.128L32.3139 78.9135C32.3497 78.9399 32.3742 78.9801 32.382 79.0254C32.3898 79.0707 32.3803 79.1175 32.3555 79.1554L32.3531 79.1604Z" fill="#0C0C0C"/>
</g>
<g opacity="0.25">
<path d="M30.4308 82.2644C30.4055 82.3013 30.3676 82.3263 30.3251 82.3341C30.2826 82.3419 30.2389 82.3319 30.2033 82.3061L22.889 76.9642C22.853 76.9379 22.8284 76.8977 22.8206 76.8524C22.8127 76.807 22.8222 76.7603 22.8469 76.7223C22.8728 76.6856 22.911 76.6606 22.9536 76.6525C22.9963 76.6443 23.0404 76.6536 23.0768 76.6784L30.3915 82.0192C30.4274 82.0455 30.4519 82.0857 30.4597 82.131C30.4675 82.1764 30.4579 82.2231 30.4331 82.261L30.4308 82.2644Z" fill="#0C0C0C"/>
</g>
<g opacity="0.25">
<path d="M28.3668 85.6399C28.3417 85.6769 28.3039 85.702 28.2614 85.7098C28.2189 85.7176 28.1752 85.7075 28.1398 85.6817L22.3048 81.4208C22.2711 81.3936 22.2487 81.3538 22.2421 81.3096C22.2355 81.2654 22.2453 81.2203 22.2694 81.1835C22.2936 81.1467 22.3302 81.1211 22.3718 81.112C22.4133 81.1029 22.4566 81.1111 22.4926 81.1347L28.3276 85.3956C28.3636 85.4219 28.3882 85.4622 28.396 85.5076C28.4038 85.5531 28.3941 85.5999 28.3692 85.6379L28.3668 85.6399Z" fill="#0C0C0C"/>
</g>
<path d="M46.4128 80.0903L63.1688 120.88L86.2884 87.5252L106.325 106.564L72.1099 153.273L71.8856 153.607C70.5161 155.584 68.6916 157.162 66.584 158.19C64.4765 159.218 62.1552 159.664 59.839 159.485C57.5228 159.307 55.2879 158.509 53.3448 157.169C51.4017 155.828 49.8145 153.987 48.7327 151.821L24.6383 92.8575L46.4128 80.0903Z" fill="#0E82FD"/>
<path d="M65.108 125.148C65.1511 125.148 65.1934 125.136 65.2309 125.114C65.2684 125.092 65.2999 125.06 65.3224 125.022C65.3448 124.983 65.3574 124.939 65.359 124.893C65.3607 124.848 65.3512 124.803 65.3316 124.763L63.3933 120.76C63.3619 120.699 63.3094 120.654 63.2469 120.634C63.1845 120.614 63.117 120.62 63.0588 120.651C63.0006 120.682 62.9562 120.736 62.9352 120.802C62.9141 120.867 62.9179 120.938 62.9459 121L64.8841 125.004C64.9052 125.047 64.9373 125.084 64.9768 125.109C65.0163 125.135 65.0617 125.148 65.108 125.148Z" fill="#0C0C0C"/>
<path d="M85.2495 119.411C85.8198 126.471 88.5926 170.514 89.1407 179.21H166.555C166.982 171.367 167.02 137.073 168.638 121.737C170.184 107.103 173.213 99.7756 170.992 95.4492C167.362 88.3782 162.149 82.0011 152.155 81.1209C148.002 80.7546 140.338 82.3165 140.338 82.3165C140.338 82.3165 139.811 93.5305 127.271 94.1542C110.2 95.0035 111.334 82.3453 111.255 82.3148C107.736 80.9584 95.4869 80.2679 90.093 84.0233C79.8013 91.1866 84.0396 104.451 85.2495 119.411Z" fill="#0E82FD"/>
<path d="M85.8261 123.993L85.3248 124.023L85.9283 135.234L86.4296 135.204L85.8261 123.993Z" fill="#0C0C0C"/>
<path d="M226.764 87.2433C226.568 86.9136 226.28 86.6562 225.939 86.5066C225.599 86.3569 225.222 86.3224 224.862 86.4078C224.863 86.3843 224.859 86.3609 224.85 86.3396C224.84 86.3184 224.826 86.2998 224.808 86.2856C224.791 86.2713 224.77 86.2619 224.748 86.258C224.726 86.2541 224.703 86.2559 224.682 86.2633L225.831 85.2131C226.176 84.9115 226.406 84.4886 226.478 84.0224C226.55 83.5562 226.46 83.0783 226.223 82.677C225.978 82.2888 225.604 82.0105 225.175 81.8961C224.746 81.7816 224.292 81.8392 223.9 82.0575C223.9 82.0387 223.889 82.0224 223.884 82.004L224.356 81.5725C224.68 81.2869 224.901 80.8921 224.98 80.4549C225.06 80.0177 224.993 79.565 224.792 79.1735C224.662 78.9307 224.482 78.7215 224.265 78.561C224.048 78.4006 223.8 78.2927 223.54 78.2454C223.279 78.198 223.011 78.2123 222.756 78.2872C222.501 78.3621 222.264 78.4957 222.064 78.6785L220.975 79.6739C220.971 79.6668 220.975 79.658 220.968 79.6518C220.962 79.6455 220.95 79.6443 220.943 79.6376C221.183 79.2936 221.305 78.8739 221.289 78.4473C221.273 78.0206 221.12 77.6124 220.855 77.2895C220.221 76.4089 218.967 76.7239 218.263 77.3672L211.833 83.0384L212.869 80.7408C213.08 80.2974 213.123 79.7863 212.989 79.3108C212.856 78.8352 212.557 78.4308 212.151 78.1793C211.938 78.057 211.703 77.9819 211.461 77.9585C211.219 77.9351 210.975 77.9639 210.744 78.0431C210.513 78.1224 210.3 78.2504 210.118 78.4194C209.935 78.5884 209.787 78.7948 209.683 79.026L204.023 91.576C203.359 93.0483 203.266 94.7355 203.763 96.2791C204.26 97.8228 205.309 99.1013 206.686 99.8429C208.284 100.703 210.088 101.04 211.869 100.812C213.649 100.584 215.325 99.8008 216.68 98.5626L226.365 89.7137C226.686 89.4097 226.9 89.0002 226.973 88.5517C227.045 88.1033 226.972 87.6422 226.764 87.2433Z" fill="#FFCEA9"/>
<g opacity="0.25">
<path d="M214.608 85.2796C214.637 85.3136 214.677 85.3345 214.72 85.338C214.763 85.3414 214.805 85.327 214.838 85.2979L220.947 79.8966C220.963 79.882 220.977 79.864 220.987 79.8437C220.997 79.8235 221.003 79.8014 221.005 79.7786C221.007 79.7559 221.005 79.7329 220.998 79.7111C220.992 79.6894 220.981 79.6691 220.967 79.6516C220.953 79.6341 220.936 79.6197 220.917 79.6092C220.898 79.5986 220.877 79.5921 220.855 79.5901C220.834 79.5881 220.812 79.5907 220.791 79.5975C220.771 79.6044 220.751 79.6155 220.735 79.6301L214.626 85.0314C214.593 85.0611 214.572 85.1035 214.568 85.1494C214.564 85.1953 214.578 85.2409 214.606 85.2762L214.608 85.2796Z" fill="#0C0C0C"/>
</g>
<g opacity="0.25">
<path d="M216.794 88.1837C216.823 88.2178 216.863 88.2389 216.906 88.2423C216.948 88.2457 216.991 88.2313 217.024 88.2021L223.84 82.1742C223.874 82.1445 223.895 82.102 223.898 82.0561C223.902 82.0101 223.889 81.9645 223.861 81.929C223.832 81.8951 223.792 81.874 223.748 81.8701C223.705 81.8661 223.662 81.8796 223.628 81.9077L216.812 87.9356C216.778 87.9653 216.758 88.0078 216.754 88.0538C216.75 88.0998 216.764 88.1454 216.792 88.1808L216.794 88.1837Z" fill="#0C0C0C"/>
</g>
<g opacity="0.25">
<path d="M219.144 91.3464C219.173 91.3804 219.213 91.4013 219.256 91.4048C219.298 91.4082 219.341 91.3938 219.374 91.3647L224.812 86.5545C224.845 86.5249 224.866 86.4824 224.87 86.4365C224.874 86.3906 224.86 86.3449 224.832 86.3095C224.804 86.2742 224.764 86.2521 224.72 86.248C224.677 86.244 224.633 86.2584 224.6 86.288L219.162 91.0966C219.128 91.1262 219.108 91.1686 219.104 91.2145C219.1 91.2605 219.114 91.3061 219.142 91.3414L219.144 91.3464Z" fill="#0C0C0C"/>
</g>
<path d="M201.366 86.7169L188.627 121.152L170.028 93.6232L149.996 112.663L178.685 158.842L178.909 159.176C180.278 161.153 182.103 162.73 184.21 163.758C186.318 164.787 188.639 165.233 190.956 165.054C193.272 164.875 195.507 164.078 197.45 162.737C199.393 161.396 200.98 159.556 202.062 157.389L222.641 98.9556L201.366 86.7169Z" fill="#0E82FD"/>
<path d="M186.689 125.42C186.646 125.42 186.604 125.409 186.566 125.386C186.529 125.364 186.497 125.332 186.475 125.294C186.452 125.255 186.44 125.211 186.438 125.165C186.436 125.12 186.446 125.075 186.465 125.035L188.404 121.032C188.434 120.97 188.487 120.924 188.55 120.903C188.613 120.882 188.681 120.888 188.74 120.919C188.799 120.951 188.844 121.006 188.864 121.072C188.885 121.138 188.88 121.21 188.851 121.273L186.913 125.276C186.892 125.319 186.86 125.356 186.82 125.381C186.781 125.407 186.735 125.42 186.689 125.42Z" fill="#0C0C0C"/>
<path d="M210.772 213.997H20.1636C20.0415 213.994 19.9255 213.94 19.8404 213.848C19.7552 213.755 19.7076 213.631 19.7076 213.503C19.7076 213.374 19.7552 213.25 19.8404 213.158C19.9255 213.065 20.0415 213.012 20.1636 213.008H210.772C210.895 213.012 211.01 213.065 211.096 213.158C211.181 213.25 211.228 213.374 211.228 213.503C211.228 213.631 211.181 213.755 211.096 213.848C211.01 213.94 210.895 213.994 210.772 213.997Z" fill="#292A2E"/>
<path d="M64.5323 54.8367V4.27968C64.5323 3.14493 64.1048 2.05663 63.3437 1.25408C62.5826 0.451532 61.5504 0.000443046 60.4739 0L4.05999 0C2.98322 0 1.95054 0.450894 1.18914 1.25349C0.427748 2.05609 0 3.14464 0 4.27968L0 41.9768C0 43.1119 0.427748 44.2004 1.18914 45.003C1.95054 45.8056 2.98322 46.2565 4.05999 46.2565H49.8997L62.6848 55.8414C62.8597 55.9726 63.0656 56.0506 63.2797 56.0666C63.4939 56.0827 63.7082 56.0363 63.899 55.9326C64.0898 55.8288 64.2498 55.6716 64.3615 55.4784C64.4733 55.2851 64.5323 55.0631 64.5323 54.8367Z" fill="#407CE2"/>
<path d="M30.5297 40.1234C31.902 40.1234 33.0145 38.9507 33.0145 37.5042C33.0145 36.0577 31.902 34.885 30.5297 34.885C29.1574 34.885 28.045 36.0577 28.045 37.5042C28.045 38.9507 29.1574 40.1234 30.5297 40.1234Z" fill="white"/>
<path d="M30.4142 31.8196C29.9852 31.8195 29.5738 31.6398 29.2706 31.32C28.9673 31.0002 28.7969 30.5666 28.7969 30.1144V23.7816C28.7969 23.399 28.919 23.0275 29.1436 22.7269C29.3681 22.4263 29.6821 22.2141 30.0349 22.1244C30.1051 22.106 37.3409 20.1757 37.3409 15.043C37.3409 11.8223 34.836 9.57068 31.2495 9.57068C27.3659 9.57068 25.3694 13.6645 25.2866 13.8374C25.0925 14.2357 24.7576 14.5376 24.3542 14.6778C23.9507 14.818 23.5112 14.7854 23.1304 14.5869C22.7497 14.3883 22.4582 14.0399 22.3191 13.6168C22.18 13.1937 22.2044 12.73 22.3869 12.3256C22.5058 12.075 25.3329 6.16113 31.2495 6.16113C36.6534 6.16113 40.5754 9.89525 40.5754 15.0409C40.5754 21.2422 34.6707 24.0827 32.0318 25.0427V30.1144C32.0317 30.5666 31.8612 31.0003 31.5579 31.32C31.2546 31.6398 30.8432 31.8195 30.4142 31.8196Z" fill="white"/>
</svg>
