<?xml version="1.0" standalone="no"?>
<!DOCTYPE svg PUBLIC "-//W3C//DTD SVG 20010904//EN"
 "http://www.w3.org/TR/2001/REC-SVG-20010904/DTD/svg10.dtd">
<svg version="1.0" xmlns="http://www.w3.org/2000/svg"
 width="512.000000pt" height="512.000000pt" viewBox="0 0 512.000000 512.000000"
 preserveAspectRatio="xMidYMid meet">

<g transform="translate(0.000000,512.000000) scale(0.100000,-0.100000)"
fill="#000000" stroke="none">
<path d="M3559 5106 c-333 -51 -625 -191 -938 -448 -132 -108 -2084 -2065
-2177 -2183 -175 -220 -278 -396 -354 -610 -179 -498 -83 -989 273 -1387 285
-319 683 -495 1074 -473 359 19 677 153 1030 431 129 101 2111 2082 2216 2214
304 383 456 785 433 1148 -12 207 -56 367 -147 541 -70 134 -149 240 -270 360
-205 206 -419 328 -678 387 -133 30 -337 39 -462 20z m406 -440 c192 -53 403
-205 547 -395 59 -79 132 -223 154 -306 21 -81 30 -284 15 -371 -36 -210 -153
-451 -324 -664 -33 -41 -254 -270 -491 -508 l-431 -432 -722 722 -723 723 413
413 c226 228 455 449 508 492 217 177 433 289 649 335 87 19 322 13 405 -9z
m-1248 -3394 c-511 -513 -635 -616 -870 -727 -173 -82 -308 -115 -468 -115
-248 0 -445 86 -647 284 -207 201 -302 411 -302 665 0 159 33 295 114 466 110
233 198 338 705 848 l436 437 722 -722 723 -723 -413 -413z"/>
<path d="M3239 4316 c-26 -7 -64 -26 -85 -43 -57 -46 -690 -684 -702 -709 -63
-122 -3 -273 123 -310 64 -18 113 -12 170 21 50 29 717 699 738 740 81 165
-68 349 -244 301z"/>
</g>
</svg>
